# xmcd
#
# Track frame offsets: 
#        150
#        11420
#        26218
#        36361
#        48613
#        56290
#        72900
#        85866
#        97253
#        108179
#
# Disc length: 1598 seconds
#
# Revision: 0
# Processed by: cddbd v1.5.2PL0 Copyright (c) Steve Scherf et al.
# Submitted via: ExactAudioCopy v0.99pb5
#
DISCID=81063c0a
DTITLE=Mountain Dews, The - Crop Of Illegal Whisky
DYEAR=1900
DGENRE=Country
TTITLE0=I'm Lost And I never Find The Way
TTITLE1=Live's Railroad to Heaven
TTITLE2=Hickory Hollow
TTITLE3=Coming Down From God
TTITLE4=Country Strings
TTITLE5=The L&N Don't Stop Here Anymore
TTITLE6=Waterbound
TTITLE7=Little Maggie
TTITLE8=The Old Account
TTITLE9=San Antonio Rose
EXTD=
EXTT0=
EXTT1=
EXTT2=
EXTT3=
EXTT4=
EXTT5=
EXTT6=
EXTT7=
EXTT8=
EXTT9=
PLAYORDER=
